<svg xmlns="http://www.w3.org/2000/svg" width="500" height="500" style="width:100%;height:100%;content-visibility:visible"><defs><clipPath id="b"><path d="M0 0h500v500H0z"/></clipPath><filter id="a" filterUnits="objectBoundingBox" x="0%" y="0%" width="100%" height="100%"><feComponentTransfer in="SourceGraphic"><feFuncA type="table" tableValues="1.0 0.0"/></feComponentTransfer></filter><mask id="c"><g filter="url(#a)"><g display="block"><path fill="#121331" d="M-25.754-22.706c-6.62-.162-8.206 3.52-3.539 8.22L-8.707 6.236c4.667 4.698 12.15 4.604 16.696-.211l17.522-18.552c4.547-4.815 2.863-8.856-3.757-9.018l-47.508-1.162z" transform="matrix(2.9365 0 0 2.9365 313.062 256.937)"/><path fill-opacity="0" stroke="#08A88A" stroke-width="0" d="M237.437 190.26c-19.442-.476-24.1 10.34-10.394 24.137l60.45 60.854c13.707 13.797 35.677 13.52 49.03-.62l51.45-54.476c13.354-14.14 8.41-26.005-11.031-26.481l-139.505-3.415z"/></g></g></mask></defs><g clip-path="url(#b)"><g display="block"><path d="M265.97 249.845a79.865 79.865 0 01-10.39-8.774l-68.426-68.559m248.88.012l-68.431 68.551a79.658 79.658 0 01-6.729 6.022" fill="none"/><path stroke-linecap="round" stroke-linejoin="round" stroke="#C61F15" stroke-width="12.333300000000001" d="M187.142 172.512l103.702 103.903c11.449 11.47 30.04 11.472 41.49.002l103.688-103.87" fill="none"/><path stroke-linecap="round" stroke-linejoin="round" stroke="#C61F15" stroke-width="12.333300000000001" d="M185.365 170.357V337.69H438.02V170.38l-252.654-.024z" fill="none"/></g><g mask="url(#c)" display="block"><path stroke-linecap="round" stroke-linejoin="round" stroke="#C61F15" stroke-width="12.333300000000001" d="M313.373 241.793c21.181.332 42.248 7.524 58.384 21.572 0-.002 62.43 54.343 62.43 54.343m-243.73-1.054l61.595-53.407c16.898-14.653 39.171-21.8 61.321-21.454" fill="none"/></g><path stroke-linecap="round" stroke-linejoin="round" stroke="#C61F15" stroke-width="12.950000000000001" d="M142.004 170.45H61.16m80.845 41.75H61.16m80.997 41.248H61.311m80.845 41.751H61.311m80.642 41.252H61.108" fill="none" display="block"/></g></svg>